<?xml version="1.0" standalone="no"?>
<!DOCTYPE svg PUBLIC "-//W3C//DTD SVG 20010904//EN"
 "http://www.w3.org/TR/2001/REC-SVG-20010904/DTD/svg10.dtd">
<svg version="1.0" xmlns="http://www.w3.org/2000/svg"
 width="700.000000pt" height="700.000000pt" viewBox="0 0 700.000000 700.000000"
 preserveAspectRatio="xMidYMid meet">
<metadata>
Created by potrace 1.14, written by Peter Selinger 2001-2017
</metadata>
<g transform="translate(0.000000,700.000000) scale(0.100000,-0.100000)"
fill="#000000" stroke="none">
<path d="M4736 6874 c-311 -51 -569 -186 -781 -411 l-60 -63 -1281 0 c-1228 0
-1282 -1 -1297 -18 -14 -15 -17 -40 -17 -119 l0 -101 -136 0 c-115 0 -138 -3
-155 -18 -19 -17 -19 -39 -19 -1153 1 -625 1 -1254 0 -1398 l0 -263 -208 1
c-249 1 -284 -6 -345 -67 -90 -88 -82 65 -82 -1534 0 -1342 1 -1417 18 -1462
21 -53 64 -100 122 -131 l40 -22 1189 -3 c1314 -3 1255 -5 1327 60 20 18 47
53 60 78 22 42 24 58 26 220 1 96 3 181 3 188 0 15 290 18 290 2 0 -6 -9 -29
-19 -53 -15 -33 -134 -322 -158 -385 -3 -7 122 65 278 159 156 94 328 198 382
230 l97 59 518 0 c284 0 527 3 540 6 29 8 38 46 37 151 l-1 83 137 0 c112 0
141 3 153 16 14 14 16 81 16 589 l0 573 27 34 c16 18 36 42 46 53 11 11 128
148 260 305 133 157 262 307 286 335 24 27 53 61 65 75 215 253 312 367 321
376 11 12 57 67 124 149 96 116 129 243 86 330 -25 50 -359 337 -411 353 -46
14 -116 6 -172 -18 -44 -20 -158 -127 -237 -224 -22 -27 -46 -55 -54 -63 -7
-8 -29 -33 -48 -56 -48 -57 -107 -127 -133 -157 -12 -14 -52 -60 -88 -102 -36
-43 -67 -78 -69 -78 -1 0 -3 201 -3 448 l0 447 48 19 c178 72 381 225 513 386
373 454 405 1111 78 1592 -55 81 -63 90 -139 171 -204 217 -469 359 -770 412
-71 13 -326 12 -404 -1z"/>
</g>
</svg>
